<?xml version="1.0" encoding="utf-8"?>
<!-- Generator: Adobe Illustrator 19.1.0, SVG Export Plug-In . SVG Version: 6.00 Build 0)  -->
<svg version="1.1" id="Ebene_1" xmlns="http://www.w3.org/2000/svg" xmlns:xlink="http://www.w3.org/1999/xlink" x="0px" y="0px"
	 viewBox="0 0 140 50" style="enable-background:new 0 0 140 50;" xml:space="preserve">
<style type="text/css">
	.st0{fill:none;}
</style>
<g>
	<path d="M31,18.6v3.1h-3.4v8.4c0,0.8,0.1,1.3,0.4,1.6c0.3,0.3,0.8,0.4,1.6,0.4c0.3,0,0.5,0,0.8,0c0.2,0,0.5-0.1,0.7-0.1v3.6
		c-0.4,0.1-0.8,0.1-1.3,0.1c-0.5,0-0.9,0-1.4,0c-0.7,0-1.4,0-2-0.1c-0.6-0.1-1.2-0.3-1.7-0.6c-0.5-0.3-0.9-0.7-1.2-1.2
		c-0.3-0.5-0.4-1.2-0.4-2.1v-10h-2.8v-3.1H23v-5.1h4.6v5.1H31z"/>
	<path d="M37.9,12.2V21H38c0.6-1,1.3-1.7,2.3-2.1c0.9-0.4,1.8-0.7,2.7-0.7c1.2,0,2.3,0.2,3.1,0.5c0.8,0.3,1.4,0.8,1.9,1.4
		c0.5,0.6,0.8,1.3,1,2.2c0.2,0.9,0.3,1.8,0.3,2.9v10.4h-4.6V26c0-1.4-0.2-2.4-0.7-3.1c-0.4-0.7-1.2-1-2.3-1c-1.3,0-2.2,0.4-2.7,1.1
		c-0.6,0.8-0.8,2-0.8,3.7v8.9h-4.6V12.2H37.9z"/>
	<path d="M57,18.6v3.1h0.1c0.2-0.5,0.5-1,0.9-1.5c0.4-0.4,0.8-0.8,1.3-1.1c0.5-0.3,1-0.6,1.5-0.7c0.5-0.2,1.1-0.3,1.7-0.3
		c0.3,0,0.6,0.1,1,0.2v4.3c-0.2,0-0.5-0.1-0.8-0.1c-0.3,0-0.6,0-0.9,0c-0.8,0-1.6,0.1-2.2,0.4c-0.6,0.3-1.1,0.7-1.4,1.2
		c-0.4,0.5-0.6,1.1-0.8,1.7c-0.2,0.7-0.2,1.4-0.2,2.1v7.6h-4.6V18.6H57z"/>
	<path d="M69.7,31.5c0.7,0.7,1.7,1,3,1c0.9,0,1.7-0.2,2.4-0.7c0.7-0.5,1.1-1,1.2-1.5h4.1c-0.7,2-1.7,3.5-3,4.3
		c-1.4,0.9-3,1.3-4.9,1.3c-1.3,0-2.5-0.2-3.6-0.6c-1.1-0.4-2-1-2.7-1.8c-0.7-0.8-1.3-1.7-1.7-2.8c-0.4-1.1-0.6-2.3-0.6-3.6
		c0-1.3,0.2-2.4,0.6-3.5c0.4-1.1,1-2,1.8-2.8c0.8-0.8,1.7-1.4,2.7-1.9c1.1-0.5,2.2-0.7,3.5-0.7c1.4,0,2.7,0.3,3.8,0.8
		c1.1,0.6,1.9,1.3,2.6,2.2c0.7,0.9,1.2,2,1.5,3.2c0.3,1.2,0.4,2.4,0.3,3.8H68.6C68.6,29.7,69,30.8,69.7,31.5z M74.9,22.6
		c-0.6-0.6-1.4-0.9-2.5-0.9c-0.7,0-1.4,0.1-1.8,0.4c-0.5,0.3-0.9,0.6-1.2,0.9c-0.3,0.4-0.5,0.8-0.6,1.2c-0.1,0.4-0.2,0.8-0.2,1.1
		h7.5C75.9,24.1,75.5,23.2,74.9,22.6z"/>
	<path d="M83.3,23.8c0.1-1.1,0.3-2,0.8-2.7c0.5-0.7,1.1-1.3,1.8-1.7c0.7-0.4,1.6-0.7,2.5-0.9c0.9-0.2,1.9-0.3,2.8-0.3
		c0.8,0,1.7,0.1,2.6,0.2c0.9,0.1,1.7,0.4,2.4,0.7c0.7,0.3,1.3,0.8,1.8,1.5c0.5,0.6,0.7,1.4,0.7,2.5v8.8c0,0.8,0,1.5,0.1,2.2
		c0.1,0.7,0.2,1.2,0.5,1.6h-4.7c-0.1-0.3-0.2-0.5-0.2-0.8c-0.1-0.3-0.1-0.5-0.1-0.8c-0.7,0.8-1.6,1.3-2.6,1.6c-1,0.3-2,0.5-3.1,0.5
		c-0.8,0-1.6-0.1-2.3-0.3c-0.7-0.2-1.3-0.5-1.8-0.9c-0.5-0.4-0.9-0.9-1.2-1.6c-0.3-0.6-0.4-1.4-0.4-2.3c0-1,0.2-1.7,0.5-2.4
		c0.3-0.6,0.8-1.1,1.3-1.5c0.5-0.4,1.1-0.6,1.8-0.8c0.7-0.2,1.4-0.3,2.1-0.4c0.7-0.1,1.4-0.2,2.1-0.3c0.7-0.1,1.3-0.2,1.8-0.3
		c0.5-0.1,0.9-0.3,1.2-0.6c0.3-0.3,0.4-0.6,0.4-1.1c0-0.5-0.1-0.9-0.2-1.2c-0.2-0.3-0.4-0.5-0.7-0.7c-0.3-0.2-0.6-0.3-0.9-0.3
		c-0.4-0.1-0.7-0.1-1.2-0.1c-0.9,0-1.6,0.2-2.2,0.6c-0.5,0.4-0.8,1-0.9,2H83.3z M94,27.2c-0.2,0.2-0.4,0.3-0.7,0.4
		c-0.3,0.1-0.6,0.2-0.9,0.2C92,28,91.6,28,91.2,28.1c-0.4,0-0.7,0.1-1.1,0.2c-0.3,0.1-0.7,0.2-1,0.3c-0.3,0.1-0.6,0.3-0.9,0.4
		c-0.3,0.2-0.5,0.4-0.6,0.7c-0.2,0.3-0.2,0.6-0.2,1.1c0,0.4,0.1,0.8,0.2,1c0.2,0.3,0.4,0.5,0.6,0.7c0.3,0.2,0.6,0.3,0.9,0.3
		c0.3,0.1,0.7,0.1,1.1,0.1c0.9,0,1.6-0.2,2.1-0.5c0.5-0.3,0.9-0.7,1.1-1.1c0.2-0.4,0.4-0.9,0.4-1.3c0.1-0.4,0.1-0.8,0.1-1V27.2z"/>
	<path d="M114.2,33.4c-0.5,0.9-1.3,1.6-2.1,2c-0.9,0.4-1.9,0.6-3,0.6c-1.3,0-2.4-0.2-3.3-0.7c-1-0.5-1.7-1.2-2.4-2
		c-0.6-0.8-1.1-1.8-1.4-2.9c-0.3-1.1-0.5-2.2-0.5-3.4c0-1.1,0.2-2.2,0.5-3.3c0.3-1.1,0.8-2,1.4-2.8c0.6-0.8,1.4-1.5,2.3-1.9
		c0.9-0.5,2-0.7,3.3-0.7c1,0,2,0.2,2.9,0.6c0.9,0.4,1.6,1.1,2.1,1.9h0.1v-8.5h4.6v23.3h-4.4L114.2,33.4L114.2,33.4z M114,25
		c-0.1-0.6-0.4-1.2-0.7-1.7c-0.3-0.5-0.7-0.9-1.2-1.2c-0.5-0.3-1.1-0.5-1.9-0.5c-0.8,0-1.4,0.2-1.9,0.5c-0.5,0.3-0.9,0.7-1.3,1.2
		c-0.3,0.5-0.5,1.1-0.7,1.7c-0.1,0.6-0.2,1.3-0.2,2c0,0.7,0.1,1.3,0.2,2c0.2,0.7,0.4,1.2,0.7,1.7c0.3,0.5,0.8,0.9,1.3,1.2
		c0.5,0.3,1.1,0.5,1.8,0.5c0.8,0,1.4-0.2,1.9-0.5c0.5-0.3,0.9-0.7,1.2-1.2c0.3-0.5,0.5-1.1,0.7-1.7c0.1-0.7,0.2-1.3,0.2-2
		C114.2,26.3,114.1,25.7,114,25z"/>
	<path d="M126.1,31.3c0.2,0.4,0.5,0.7,0.8,0.9c0.3,0.2,0.7,0.4,1.1,0.5c0.4,0.1,0.9,0.2,1.3,0.2c0.3,0,0.7,0,1-0.1
		c0.4-0.1,0.7-0.2,1-0.4c0.3-0.2,0.5-0.4,0.7-0.7c0.2-0.3,0.3-0.6,0.3-1c0-0.7-0.5-1.2-1.4-1.6c-0.9-0.3-2.2-0.7-3.9-1
		c-0.7-0.2-1.3-0.3-2-0.5c-0.6-0.2-1.2-0.5-1.7-0.8c-0.5-0.3-0.9-0.8-1.2-1.3c-0.3-0.5-0.5-1.1-0.5-1.9c0-1.1,0.2-2,0.6-2.7
		c0.4-0.7,1-1.2,1.7-1.6c0.7-0.4,1.5-0.7,2.4-0.8c0.9-0.2,1.8-0.2,2.7-0.2c0.9,0,1.8,0.1,2.7,0.3c0.9,0.2,1.6,0.5,2.3,0.9
		c0.7,0.4,1.2,1,1.7,1.6c0.4,0.7,0.7,1.6,0.8,2.6h-4.4c-0.1-0.9-0.4-1.5-1-1.8c-0.6-0.3-1.3-0.5-2.2-0.5c-0.3,0-0.5,0-0.8,0
		c-0.3,0-0.6,0.1-0.8,0.2c-0.3,0.1-0.5,0.3-0.6,0.5c-0.2,0.2-0.3,0.5-0.3,0.8c0,0.4,0.2,0.8,0.5,1c0.3,0.3,0.7,0.5,1.2,0.6
		c0.5,0.2,1.1,0.3,1.7,0.4c0.6,0.1,1.3,0.3,1.9,0.4c0.7,0.2,1.3,0.3,2,0.6c0.6,0.2,1.2,0.5,1.7,0.9c0.5,0.4,0.9,0.8,1.2,1.3
		c0.3,0.5,0.5,1.2,0.5,2c0,1.1-0.2,2-0.7,2.8c-0.4,0.8-1,1.4-1.7,1.8c-0.7,0.5-1.5,0.8-2.5,1c-0.9,0.2-1.9,0.3-2.8,0.3
		c-1,0-1.9-0.1-2.9-0.3c-0.9-0.2-1.8-0.5-2.5-1c-0.7-0.5-1.3-1.1-1.8-1.8c-0.5-0.8-0.7-1.7-0.8-2.8h4.4
		C125.8,30.5,125.9,31,126.1,31.3z"/>
</g>
<rect x="2.8" y="18.6" width="20.9" height="3.1"/>
<rect x="8" y="22.4" width="15.7" height="3.1"/>
<rect x="13.8" y="26.2" width="9.9" height="3.1"/>
<rect x="14.6" y="25.5" class="st0" width="1.3" height="0.7"/>
</svg>
